<svg width="106" height="27" viewBox="0 0 106 27" fill="none" xmlns="http://www.w3.org/2000/svg">
<path d="M7.8 9.14C7.8 9.6 8 10.02 8.4 10.4C8.8 10.78 9.3 11.16 9.9 11.54C10.52 11.92 11.18 12.32 11.88 12.74C12.6 13.16 13.26 13.64 13.86 14.18C14.48 14.7 14.99 15.3 15.39 15.98C15.79 16.64 15.99 17.41 15.99 18.29C15.99 18.67 15.94 19.06 15.84 19.46C15.74 19.86 15.61 20.25 15.45 20.63C15.29 21.01 15.09 21.36 14.85 21.68C14.63 22 14.39 22.27 14.13 22.49C13.87 22.71 13.6 22.88 13.32 23C13.04 23.1 12.77 23.19 12.51 23.27C12.25 23.35 12.01 23.42 11.79 23.48C11.57 23.56 11.39 23.66 11.25 23.78C11.05 23.96 10.9 24.21 10.8 24.53C10.72 24.87 10.6 25.19 10.44 25.49C10.28 25.81 10.04 26.08 9.72 26.3C9.4 26.54 8.89 26.66 8.19 26.66C7.41 26.66 6.77 26.5 6.27 26.18C5.77 25.88 5.52 25.48 5.52 24.98C5.52 24.86 5.53 24.71 5.55 24.53C5.57 24.37 5.58 24.21 5.58 24.05C5.58 23.81 5.54 23.62 5.46 23.48C5.4 23.36 5.26 23.25 5.04 23.15C4.68 22.97 4.23 22.83 3.69 22.73C3.17 22.61 2.66 22.45 2.16 22.25C1.68 22.05 1.26 21.77 0.9 21.41C0.56 21.03 0.39 20.49 0.39 19.79C0.39 18.99 0.62 18.36 1.08 17.9C1.56 17.42 2.21 17.18 3.03 17.18C3.61 17.18 4.11 17.27 4.53 17.45C4.95 17.61 5.34 17.79 5.7 17.99C6.06 18.17 6.4 18.35 6.72 18.53C7.06 18.69 7.44 18.77 7.86 18.77C8.26 18.77 8.59 18.66 8.85 18.44C9.13 18.2 9.27 17.91 9.27 17.57C9.27 17.55 9.26 17.52 9.24 17.48C9.24 17.4 9.2 17.31 9.12 17.21C8.78 16.61 8.34 16.17 7.8 15.89C7.26 15.59 6.69 15.35 6.09 15.17C5.49 14.97 4.88 14.78 4.26 14.6C3.66 14.42 3.11 14.15 2.61 13.79C2.13 13.41 1.73 12.89 1.41 12.23C1.11 11.55 0.96 10.63 0.96 9.47C0.96 8.59 1.1 7.89 1.38 7.37C1.68 6.85 2.06 6.41 2.52 6.05C2.98 5.69 3.5 5.37 4.08 5.09C4.68 4.79 5.28 4.44 5.88 4.04C6.22 3.82 6.47 3.6 6.63 3.38C6.81 3.16 6.93 2.96 6.99 2.78C7.07 2.58 7.13 2.41 7.17 2.27C7.21 2.11 7.26 2 7.32 1.94C7.5 1.76 7.8 1.53 8.22 1.25C8.66 0.969999 9.24 0.829999 9.96 0.829999C10.24 0.829999 10.55 0.869999 10.89 0.95C11.23 1.01 11.54 1.1 11.82 1.22C12.1 1.34 12.33 1.48 12.51 1.64C12.71 1.8 12.81 1.97 12.81 2.15C12.81 2.59 12.71 3.01 12.51 3.41C12.31 3.81 12.21 4.2 12.21 4.58C12.21 4.96 12.38 5.27 12.72 5.51C13.08 5.73 13.47 5.99 13.89 6.29C14.33 6.59 14.72 6.98 15.06 7.46C15.42 7.94 15.6 8.63 15.6 9.53C15.6 10.23 15.41 10.81 15.03 11.27C14.67 11.73 14.22 11.96 13.68 11.96C13.28 11.96 12.89 11.91 12.51 11.81C12.15 11.69 11.82 11.54 11.52 11.36C11.24 11.18 11.01 10.98 10.83 10.76C10.65 10.52 10.56 10.27 10.56 10.01C10.56 9.43 10.43 8.94 10.17 8.54C9.93 8.12 9.55 7.91 9.03 7.91C8.65 7.91 8.35 8.03 8.13 8.27C7.91 8.49 7.8 8.78 7.8 9.14ZM18.4516 13.28C18.4516 12.64 18.4516 12 18.4516 11.36C18.4716 10.72 18.4816 10.08 18.4816 9.44C18.4816 8.54 18.5416 7.72 18.6616 6.98C18.7816 6.22 18.9616 5.57 19.2016 5.03C19.4616 4.49 19.7716 4.07 20.1316 3.77C20.5116 3.45 20.9416 3.29 21.4216 3.29C22.3816 3.29 23.1616 3.64 23.7616 4.34C24.3816 5.02 24.6916 6.19 24.6916 7.85C24.6916 9.25 24.8916 10.22 25.2916 10.76C25.6916 11.28 26.3416 11.54 27.2416 11.54C27.6416 11.54 27.9616 11.43 28.2016 11.21C28.4416 10.99 28.6216 10.7 28.7416 10.34C28.8616 9.98 28.9416 9.56 28.9816 9.08C29.0216 8.58 29.0416 8.06 29.0416 7.52C29.0416 6.98 29.0716 6.46 29.1316 5.96C29.1916 5.44 29.3016 4.98 29.4616 4.58C29.6416 4.18 29.8916 3.86 30.2116 3.62C30.5316 3.36 30.9416 3.23 31.4416 3.23C32.3016 3.23 32.9816 3.4 33.4816 3.74C34.0016 4.06 34.3916 4.65 34.6516 5.51C34.9316 6.37 35.1116 7.55 35.1916 9.05C35.2716 10.53 35.3116 12.42 35.3116 14.72C35.3116 16.22 35.3016 17.57 35.2816 18.77C35.2616 19.95 35.1516 20.96 34.9516 21.8C34.7716 22.62 34.4516 23.24 33.9916 23.66C33.5516 24.1 32.9016 24.32 32.0416 24.32C31.0816 24.32 30.3416 24.15 29.8216 23.81C29.3216 23.49 28.9516 23.06 28.7116 22.52C28.4716 21.96 28.3316 21.33 28.2916 20.63C28.2516 19.91 28.2316 19.18 28.2316 18.44C28.2316 18.14 28.1716 17.87 28.0516 17.63C27.9516 17.37 27.8116 17.15 27.6316 16.97C27.4716 16.79 27.3016 16.65 27.1216 16.55C26.9416 16.45 26.7716 16.4 26.6116 16.4C26.3116 16.4 26.0616 16.51 25.8616 16.73C25.6616 16.95 25.4916 17.21 25.3516 17.51C25.2116 17.81 25.1116 18.13 25.0516 18.47C24.9916 18.79 24.9616 19.06 24.9616 19.28C24.9616 19.72 24.9916 20.16 25.0516 20.6C25.1316 21.02 25.1716 21.46 25.1716 21.92C25.1716 22.66 25.0116 23.22 24.6916 23.6C24.3716 24 23.8316 24.2 23.0716 24.2C22.2516 24.2 21.5616 24.01 21.0016 23.63C20.4616 23.25 20.0216 22.75 19.6816 22.13C19.3416 21.49 19.0816 20.78 18.9016 20C18.7416 19.22 18.6216 18.43 18.5416 17.63C18.4816 16.81 18.4516 16.02 18.4516 15.26C18.4516 14.5 18.4516 13.84 18.4516 13.28ZM44.3878 3.89C45.8278 3.89 47.0978 4.2 48.1978 4.82C49.3178 5.44 50.2478 6.26 50.9878 7.28C51.7478 8.28 52.3178 9.42 52.6978 10.7C53.0778 11.98 53.2678 13.27 53.2678 14.57C53.2678 15.25 53.2178 15.94 53.1178 16.64C53.0378 17.32 52.9078 17.99 52.7278 18.65C52.5478 19.29 52.3278 19.89 52.0678 20.45C51.8078 21.01 51.5078 21.5 51.1678 21.92C50.8078 22.36 50.3878 22.8 49.9078 23.24C49.4478 23.7 48.9378 24.11 48.3778 24.47C47.8378 24.83 47.2578 25.12 46.6378 25.34C46.0178 25.56 45.3778 25.67 44.7178 25.67C43.4578 25.67 42.3278 25.4 41.3278 24.86C40.3278 24.34 39.4778 23.59 38.7778 22.61C38.0778 21.61 37.5378 20.41 37.1578 19.01C36.7978 17.59 36.6178 16 36.6178 14.24C36.6178 12.66 36.8278 11.23 37.2478 9.95C37.6878 8.67 38.2678 7.58 38.9878 6.68C39.7078 5.78 40.5278 5.09 41.4478 4.61C42.3878 4.13 43.3678 3.89 44.3878 3.89ZM42.3478 13.43C42.3478 14.11 42.4278 14.73 42.5878 15.29C42.7678 15.85 42.9878 16.34 43.2478 16.76C43.5278 17.16 43.8278 17.47 44.1478 17.69C44.4678 17.91 44.7778 18.02 45.0778 18.02C45.3778 18.02 45.6778 17.91 45.9778 17.69C46.2778 17.45 46.5478 17.12 46.7878 16.7C47.0278 16.28 47.2178 15.78 47.3578 15.2C47.5178 14.6 47.5978 13.94 47.5978 13.22C47.5978 12.54 47.5278 11.91 47.3878 11.33C47.2678 10.75 47.0978 10.25 46.8778 9.83C46.6578 9.39 46.3978 9.05 46.0978 8.81C45.8178 8.57 45.5178 8.45 45.1978 8.45C44.8778 8.45 44.5478 8.58 44.2078 8.84C43.8678 9.1 43.5578 9.46 43.2778 9.92C43.0178 10.36 42.7978 10.89 42.6178 11.51C42.4378 12.11 42.3478 12.75 42.3478 13.43ZM61.3052 4.82C61.6052 4.82 61.8852 4.77 62.1452 4.67C62.4252 4.55 62.7152 4.43 63.0152 4.31C63.3152 4.19 63.6352 4.08 63.9752 3.98C64.3352 3.86 64.7352 3.8 65.1752 3.8C65.9752 3.8 66.7152 3.99 67.3952 4.37C68.0952 4.73 68.7052 5.23 69.2252 5.87C69.7452 6.51 70.1552 7.26 70.4552 8.12C70.7552 8.98 70.9052 9.91 70.9052 10.91C70.9052 13.63 70.1452 15.74 68.6252 17.24C67.1252 18.74 65.0052 19.49 62.2652 19.49C62.0052 19.49 61.8152 19.54 61.6952 19.64C61.5952 19.72 61.5252 19.84 61.4852 20C61.4652 20.16 61.4652 20.34 61.4852 20.54C61.5052 20.74 61.5152 20.95 61.5152 21.17C61.5152 21.83 61.4752 22.42 61.3952 22.94C61.3352 23.44 61.1852 23.86 60.9452 24.2C60.7252 24.54 60.3952 24.8 59.9552 24.98C59.5152 25.16 58.9352 25.25 58.2152 25.25C57.5952 25.25 57.0852 25.13 56.6852 24.89C56.2852 24.65 55.9652 24.33 55.7252 23.93C55.4852 23.55 55.3152 23.12 55.2152 22.64C55.1152 22.16 55.0452 21.67 55.0052 21.17C54.9052 19.99 54.8352 18.87 54.7952 17.81C54.7552 16.75 54.7352 15.82 54.7352 15.02C54.7352 14.48 54.7352 13.83 54.7352 13.07C54.7552 12.29 54.7952 11.48 54.8552 10.64C54.9152 9.8 55.0152 8.96 55.1552 8.12C55.3152 7.28 55.5352 6.53 55.8152 5.87C56.0952 5.19 56.4452 4.64 56.8652 4.22C57.3052 3.8 57.8452 3.59 58.4852 3.59C58.8852 3.59 59.1952 3.66 59.4152 3.8C59.6352 3.92 59.8352 4.06 60.0152 4.22C60.1952 4.36 60.3752 4.5 60.5552 4.64C60.7352 4.76 60.9852 4.82 61.3052 4.82ZM62.6252 8.18C62.0652 8.18 61.6152 8.45 61.2752 8.99C60.9552 9.51 60.7952 10.22 60.7952 11.12C60.7952 11.96 60.9452 12.64 61.2452 13.16C61.5452 13.66 61.9452 13.91 62.4452 13.91C62.7452 13.91 63.0252 13.83 63.2852 13.67C63.5452 13.49 63.7752 13.26 63.9752 12.98C64.1952 12.7 64.3652 12.38 64.4852 12.02C64.6052 11.64 64.6652 11.25 64.6652 10.85C64.6652 10.11 64.4652 9.48 64.0652 8.96C63.6852 8.44 63.2052 8.18 62.6252 8.18ZM78.7146 4.82C79.0146 4.82 79.2946 4.77 79.5546 4.67C79.8346 4.55 80.1246 4.43 80.4246 4.31C80.7246 4.19 81.0446 4.08 81.3846 3.98C81.7446 3.86 82.1446 3.8 82.5846 3.8C83.3846 3.8 84.1246 3.99 84.8046 4.37C85.5046 4.73 86.1146 5.23 86.6346 5.87C87.1546 6.51 87.5646 7.26 87.8646 8.12C88.1646 8.98 88.3146 9.91 88.3146 10.91C88.3146 13.63 87.5546 15.74 86.0346 17.24C84.5346 18.74 82.4146 19.49 79.6746 19.49C79.4146 19.49 79.2246 19.54 79.1046 19.64C79.0046 19.72 78.9346 19.84 78.8946 20C78.8746 20.16 78.8746 20.34 78.8946 20.54C78.9146 20.74 78.9246 20.95 78.9246 21.17C78.9246 21.83 78.8846 22.42 78.8046 22.94C78.7446 23.44 78.5946 23.86 78.3546 24.2C78.1346 24.54 77.8046 24.8 77.3646 24.98C76.9246 25.16 76.3446 25.25 75.6246 25.25C75.0046 25.25 74.4946 25.13 74.0946 24.89C73.6946 24.65 73.3746 24.33 73.1346 23.93C72.8946 23.55 72.7246 23.12 72.6246 22.64C72.5246 22.16 72.4546 21.67 72.4146 21.17C72.3146 19.99 72.2446 18.87 72.2046 17.81C72.1646 16.75 72.1446 15.82 72.1446 15.02C72.1446 14.48 72.1446 13.83 72.1446 13.07C72.1646 12.29 72.2046 11.48 72.2646 10.64C72.3246 9.8 72.4246 8.96 72.5646 8.12C72.7246 7.28 72.9446 6.53 73.2246 5.87C73.5046 5.19 73.8546 4.64 74.2746 4.22C74.7146 3.8 75.2546 3.59 75.8946 3.59C76.2946 3.59 76.6046 3.66 76.8246 3.8C77.0446 3.92 77.2446 4.06 77.4246 4.22C77.6046 4.36 77.7846 4.5 77.9646 4.64C78.1446 4.76 78.3946 4.82 78.7146 4.82ZM80.0346 8.18C79.4746 8.18 79.0246 8.45 78.6846 8.99C78.3646 9.51 78.2046 10.22 78.2046 11.12C78.2046 11.96 78.3546 12.64 78.6546 13.16C78.9546 13.66 79.3546 13.91 79.8546 13.91C80.1546 13.91 80.4346 13.83 80.6946 13.67C80.9546 13.49 81.1846 13.26 81.3846 12.98C81.6046 12.7 81.7746 12.38 81.8946 12.02C82.0146 11.64 82.0746 11.25 82.0746 10.85C82.0746 10.11 81.8746 9.48 81.4746 8.96C81.0946 8.44 80.6146 8.18 80.0346 8.18ZM88.954 5.72C88.954 5.38 89.034 5 89.194 4.58C89.374 4.16 89.624 3.76 89.944 3.38C90.284 3 90.704 2.69 91.204 2.45C91.704 2.19 92.284 2.06 92.944 2.06C93.384 2.06 93.764 2.21 94.084 2.51C94.404 2.79 94.684 3.15 94.924 3.59C95.164 4.01 95.374 4.47 95.554 4.97C95.734 5.47 95.904 5.94 96.064 6.38C96.224 6.8 96.394 7.16 96.574 7.46C96.754 7.74 96.954 7.88 97.174 7.88C97.414 7.88 97.694 7.66 98.014 7.22C98.334 6.76 98.644 6.24 98.944 5.66C99.264 5.06 99.564 4.48 99.844 3.92C100.144 3.36 100.394 2.97 100.594 2.75C100.994 2.29 101.534 2.06 102.214 2.06C102.554 2.06 102.894 2.12 103.234 2.24C103.594 2.36 103.924 2.53 104.224 2.75C104.524 2.95 104.764 3.21 104.944 3.53C105.144 3.83 105.244 4.16 105.244 4.52C105.244 5.28 105.124 6.04 104.884 6.8C104.644 7.56 104.334 8.33 103.954 9.11C103.594 9.87 103.194 10.64 102.754 11.42C102.334 12.2 101.934 12.99 101.554 13.79C101.194 14.57 100.894 15.36 100.654 16.16C100.414 16.96 100.294 17.78 100.294 18.62C100.294 19.12 100.314 19.62 100.354 20.12C100.394 20.6 100.414 21.09 100.414 21.59C100.414 22.07 100.334 22.52 100.174 22.94C100.034 23.34 99.814 23.7 99.514 24.02C99.234 24.34 98.874 24.59 98.434 24.77C98.014 24.95 97.534 25.04 96.994 25.04C96.194 25.04 95.524 24.92 94.984 24.68C94.464 24.44 94.044 24.1 93.724 23.66C93.424 23.22 93.214 22.71 93.094 22.13C92.974 21.53 92.914 20.89 92.914 20.21C92.914 19.81 92.924 19.38 92.944 18.92C92.964 18.46 92.974 17.99 92.974 17.51C92.974 17.03 92.944 16.57 92.884 16.13C92.844 15.67 92.764 15.26 92.644 14.9C92.484 14.44 92.284 13.96 92.044 13.46C91.804 12.94 91.554 12.43 91.294 11.93C91.034 11.41 90.774 10.9 90.514 10.4C90.254 9.88 90.024 9.4 89.824 8.96C89.604 8.46 89.404 7.94 89.224 7.4C89.044 6.84 88.954 6.28 88.954 5.72Z" fill="white"/>
</svg>
